<?xml version="1.0" encoding="UTF-8"?>
<svg id="Layer_1" data-name="Layer 1" xmlns="http://www.w3.org/2000/svg" viewBox="0 0 136.996 121.461">
  <g>
    <g>
      <polygon points="75.006 49.979 75.006 50.23 78.804 50.23 78.804 44.723 78.732 44.723 75.006 49.979"/>
      <polygon points="97.056 47.17 97.686 46.541 97.686 44.705 97.056 44.074 93.888 44.074 93.258 44.705 93.258 46.541 93.888 47.17 97.056 47.17"/>
      <path d="M107.577,30.62l-41.423-.057c-1.147.043-2.094,1.718-2.74,2.633-7.548,10.692-6.377,25.345,2.336,34.982.813.899,3.013,3.175,4.133,3.307l33.799-.116c12.674-9.687,14.474-28.775,3.894-40.748ZM82.674,52.247h-1.53v2.34h-2.448v-2.34h-6.084v-2.466l5.599-7.794h2.934v8.172h1.53v2.088ZM88.47,54.586h-2.448v-9.99l-2.718,1.404v-2.25l3.204-1.764h1.962v12.6ZM100.314,52.643l-1.944,1.944h-5.796l-1.943-1.944v-3.42l1.134-1.134-.954-.954v-3.204l1.944-1.944h5.436l1.944,1.944v3.204l-.954.954,1.134,1.134v3.42Z"/>
      <polygon points="93.707 49.223 93.077 49.853 93.077 51.869 93.707 52.499 97.236 52.499 97.866 51.869 97.866 49.853 97.236 49.223 93.707 49.223"/>
    </g>
    <path d="M39.807,47.929c.72-6.227,4.598-11.494,10.403-13.879,3.333-1.369,6.729-1.449,10.271-.994l-2.308,4.715c-17.327-.579-17.085,23.557,0,23l2.308,4.61c-.058.284-2.303.518-2.782.528-9.007.193-17.138-6.634-17.893-15.708v-2.272Z"/>
    <path d="M135.944,0c2.624,1.619-.787,2.999-1.616,4.686-1.61,3.276,1.621,5.371,2.383,8.286.565,2.162.299,3.916-.889,5.81-.553.881-3.386,4.424-4.324,2.498-.667-1.37,1.249-2.397,1.965-3.409,3.14-4.435-1.596-6.571-2.045-10.558-.347-3.076,1.673-5.713,4.112-7.312h.413Z"/>
    <path d="M106.586,28.096h-40.316c.325-4.42,4.335-8.715,8.779-9.097,7.457-.641,15.936.418,23.484.1,4.225.865,7.897,4.589,8.052,8.997Z"/>
    <path d="M134.497,28.923v4.132h-5.686c-.625,0-1.005,1.076-1.082,1.604-.568,3.872-.377,7.909-1.15,11.866-1.142,5.848-4.674,10.956-10.895,11.939,1.197-4.346,1.584-8.798,1.065-13.283,2.497-2.588,4.566-5.387,5.25-9.017.489-2.593-.163-4.766,2.38-6.505.216-.148,1.399-.736,1.537-.736h8.58Z"/>
    <path d="M85.654,6.459c7.744-1.103,7.602,11.333-.228,9.835-5.401-1.033-5.098-9.076.228-9.835Z"/>
    <path d="M125.755.248c.365-.082.745-.108,1.093.061,1.693,1.593-1.417,2.975-2.151,4.67-1.249,2.886,1.517,5.127,2.364,7.718.868,2.653.388,4.483-1.163,6.704-.581.832-2.994,3.905-3.904,1.874-.574-1.282.682-1.76,1.332-2.584,4.574-5.801-2.212-7.545-1.423-13.198.192-1.375,2.503-4.941,3.852-5.245Z"/>
  </g>
  <g>
    <path d="M110.503,121.461c-1.652-.683-2.408-1.27-3.344-2.784-3.901-6.309-5.027-14.387-11.306-19.187-3.008-2.3-11.387-7.582-14.87-8.37-.33-.075-.403-.157-.77.009-.635.287-2.826,2.952-3.663,3.657-8.364,7.043-21.768,8.696-31.169,2.682-5.369-3.435-1.972-11.006,3.8-10.298,1.711.21,3.613,1.68,5.369,2.203,10.422,3.107,18.257-6.762,22.128-15.022h20.243l-4.944,9.735c5.1,3.546,12.195,6.949,15.866,12.046,2.002,2.779,3.726,6.514,5.236,9.619.906,1.863,3.951,7.746,4.2,9.349.534,3.44-1.399,5.307-4.424,6.361h-2.351Z"/>
    <path d="M16.029,76.776c.418-.382,1.286-.611,1.863-.618l40.506.008c3.031.361,2.7,3.644.53,3.924H17.109c-1.555-.203-2.278-2.22-1.08-3.313Z"/>
    <path d="M1.774,100.961l37.029-.062c2.778.027,3.061,3.588.267,3.91H1.967c-2.444-.241-2.724-3.397-.193-3.848Z"/>
  </g>
</svg>